<svg xmlns="http://www.w3.org/2000/svg" viewBox="0 0 320 580" fill="none">
  <defs>
    <linearGradient id="sosGrad" x1="0" y1="0" x2="320" y2="0" gradientUnits="userSpaceOnUse">
      <stop offset="0%" stop-color="#dc2626"/>
      <stop offset="100%" stop-color="#b91c1c"/>
    </linearGradient>
    <filter id="glow">
      <feGaussianBlur stdDeviation="4" result="blur"/>
      <feMerge><feMergeNode in="blur"/><feMergeNode in="SourceGraphic"/></feMerge>
    </filter>
    <style>
      @keyframes pulse { 0%,100%{opacity:1} 50%{opacity:0.6} }
      @keyframes slideUp { from{transform:translateY(20px);opacity:0} to{transform:translateY(0);opacity:1} }
      @keyframes sosPulse { 0%{r:24;opacity:0.3} 100%{r:40;opacity:0} }
      @keyframes float { 0%,100%{transform:translateY(0)} 50%{transform:translateY(-3px)} }
      .cat-card { animation: slideUp 0.5s ease both; }
      .cat-card:nth-child(1){animation-delay:0.1s} .cat-card:nth-child(2){animation-delay:0.15s}
      .cat-card:nth-child(3){animation-delay:0.2s} .cat-card:nth-child(4){animation-delay:0.25s}
      .cat-card:nth-child(5){animation-delay:0.3s} .cat-card:nth-child(6){animation-delay:0.35s}
      .cat-card:nth-child(7){animation-delay:0.4s} .cat-card:nth-child(8){animation-delay:0.45s}
      .cat-card:nth-child(9){animation-delay:0.5s}
      .sos-ring { animation: sosPulse 2s ease-out infinite; }
      .nav-item.active svg { animation: float 2s ease infinite; }
    </style>
  </defs>

  <!-- Phone Frame -->
  <rect width="320" height="580" rx="24" fill="#f8f9fa"/>
  <rect x="4" y="4" width="312" height="572" rx="22" fill="white"/>

  <!-- Status Bar -->
  <rect x="0" y="0" width="320" height="44" fill="white"/>
  <text x="28" y="30" font-family="Inter,system-ui,sans-serif" font-size="14" font-weight="600" fill="#1a1a1a">9:41</text>
  <circle cx="260" cy="24" r="4" fill="#34C759"/>
  <text x="270" y="28" font-family="Inter,system-ui,sans-serif" font-size="10" fill="#86868b">5G</text>
  <rect x="288" y="20" width="22" height="10" rx="2" stroke="#1a1a1a" stroke-width="1.2" fill="none"/>
  <rect x="289" y="21" width="16" height="8" rx="1.5" fill="#1a1a1a"/>

  <!-- Header -->
  <rect x="0" y="44" width="320" height="56" fill="white"/>
  <rect x="16" y="54" width="48" height="32" rx="8" fill="url(#sosGrad)"/>
  <text x="26" y="75" font-family="Inter,system-ui,sans-serif" font-size="11" font-weight="800" fill="white">K</text>
  <text x="76" y="76" font-family="Inter,system-ui,sans-serif" font-size="18" font-weight="800" fill="#1a1a1a">KONEK</text>
  <!-- Profile icon -->
  <circle cx="290" cy="70" r="14" fill="#f0f0f0"/>
  <circle cx="290" cy="66" r="5" fill="#86868b"/>
  <path d="M280 80 Q290 74 300 80" stroke="#86868b" stroke-width="1.5" fill="none"/>

  <!-- Status Chips -->
  <rect x="16" y="108" width="72" height="28" rx="14" fill="#EBF5FF"/>
  <circle cx="30" cy="122" r="4" fill="#3B82F6"/>
  <text x="38" y="126" font-family="Inter,system-ui,sans-serif" font-size="10" font-weight="600" fill="#3B82F6">Cloud</text>

  <rect x="96" y="108" width="100" height="28" rx="14" fill="#ECFDF5"/>
  <circle cx="110" cy="122" r="4" fill="#10B981"/>
  <text x="118" y="126" font-family="Inter,system-ui,sans-serif" font-size="10" font-weight="600" fill="#10B981">GPS: High</text>

  <rect x="204" y="108" width="100" height="28" rx="14" fill="#FEF3F2"/>
  <circle cx="218" cy="122" r="4" fill="#EF4444"/>
  <text x="226" y="126" font-family="Inter,system-ui,sans-serif" font-size="10" font-weight="600" fill="#EF4444">No MDRRMO</text>

  <!-- SOS Button -->
  <rect x="16" y="148" width="288" height="72" rx="16" fill="url(#sosGrad)" filter="url(#glow)"/>
  <circle class="sos-ring" cx="52" cy="184" r="24" fill="none" stroke="#ff6b6b" stroke-width="2"/>
  <!-- Warning triangle icon -->
  <path d="M52 172 L62 190 L42 190 Z" fill="none" stroke="white" stroke-width="2" stroke-linejoin="round"/>
  <line x1="52" y1="177" x2="52" y2="184" stroke="white" stroke-width="2" stroke-linecap="round"/>
  <circle cx="52" cy="187" r="1" fill="white"/>
  <text x="76" y="176" font-family="Inter,system-ui,sans-serif" font-size="18" font-weight="800" fill="white">SEND SOS</text>
  <text x="76" y="196" font-family="Inter,system-ui,sans-serif" font-size="11" fill="rgba(255,255,255,0.8)">Tap to send emergency alert</text>

  <!-- Report Incident -->
  <rect x="16" y="232" width="288" height="44" rx="12" fill="#F0F9FF" stroke="#BAE6FD" stroke-width="1"/>
  <rect x="28" y="242" width="24" height="24" rx="6" fill="#0EA5E9"/>
  <!-- Camera icon -->
  <rect x="33" y="249" width="14" height="10" rx="2" fill="white"/>
  <circle cx="40" cy="254" r="3" fill="#0EA5E9"/>
  <text x="60" y="251" font-family="Inter,system-ui,sans-serif" font-size="13" font-weight="600" fill="#0EA5E9">Report Incident</text>
  <text x="168" y="251" font-family="Inter,system-ui,sans-serif" font-size="11" fill="#94A3B8">with photo proof</text>

  <!-- Emergency Categories Label -->
  <text x="16" y="304" font-family="Inter,system-ui,sans-serif" font-size="14" font-weight="700" fill="#1a1a1a">Emergency Categories</text>

  <!-- Category Grid -->
  <g class="cat-card">
    <rect x="16" y="316" width="88" height="76" rx="12" fill="#FEF2F2" stroke="#FECACA" stroke-width="0.5"/>
    <rect x="40" y="326" width="40" height="40" rx="10" fill="#FEE2E2"/>
    <!-- Medical cross -->
    <path d="M50 336 L50 356 M40 346 L60 346" stroke="#DC2626" stroke-width="3" stroke-linecap="round"/>
    <text x="36" y="382" font-family="Inter,system-ui,sans-serif" font-size="10" font-weight="600" fill="#374151">Medical</text>
  </g>
  <g class="cat-card">
    <rect x="116" y="316" width="88" height="76" rx="12" fill="#FFF7ED" stroke="#FED7AA" stroke-width="0.5"/>
    <rect x="140" y="326" width="40" height="40" rx="10" fill="#FFEDD5"/>
    <!-- Fire icon -->
    <path d="M160 334 Q166 342 162 350 Q168 344 164 336 Q160 342 156 336 Q152 344 158 350 Q154 342 160 334Z" fill="#EA580C"/>
    <text x="136" y="382" font-family="Inter,system-ui,sans-serif" font-size="10" font-weight="600" fill="#374151">Fire</text>
  </g>
  <g class="cat-card">
    <rect x="216" y="316" width="88" height="76" rx="12" fill="#F0F9FF" stroke="#BAE6FD" stroke-width="0.5"/>
    <rect x="240" y="326" width="40" height="40" rx="10" fill="#E0F2FE"/>
    <!-- Water/wave icon -->
    <path d="M242 344 Q246 340 250 344 Q254 348 258 344 Q262 340 266 344" stroke="#0284c7" stroke-width="2" fill="none" stroke-linecap="round"/>
    <path d="M242 350 Q246 346 250 350 Q254 354 258 350 Q262 346 266 350" stroke="#0284c7" stroke-width="2" fill="none" stroke-linecap="round"/>
    <text x="236" y="382" font-family="Inter,system-ui,sans-serif" font-size="10" font-weight="600" fill="#374151">Flood</text>
  </g>

  <g class="cat-card">
    <rect x="16" y="400" width="88" height="76" rx="12" fill="#FFFBEB" stroke="#FDE68A" stroke-width="0.5"/>
    <rect x="40" y="410" width="40" height="40" rx="10" fill="#FEF3C7"/>
    <!-- Seismic wave icon -->
    <path d="M40 430 L46 430 L48 420 L52 440 L56 424 L60 430 L66 430" stroke="#D97706" stroke-width="2" fill="none" stroke-linecap="round" stroke-linejoin="round"/>
    <text x="28" y="466" font-family="Inter,system-ui,sans-serif" font-size="10" font-weight="600" fill="#374151">Earthquake</text>
  </g>
  <g class="cat-card">
    <rect x="116" y="400" width="88" height="76" rx="12" fill="#F5F3FF" stroke="#DDD6FE" stroke-width="0.5"/>
    <rect x="140" y="410" width="40" height="40" rx="10" fill="#EDE9FE"/>
    <!-- Wind/typhoon icon -->
    <path d="M144 432 L164 432 Q168 432 168 428 L168 424" stroke="#7C3AED" stroke-width="2" fill="none" stroke-linecap="round"/>
    <path d="M144 438 L158 438 Q162 438 162 442 L162 446" stroke="#7C3AED" stroke-width="2" fill="none" stroke-linecap="round"/>
    <path d="M148 426 L152 426 Q156 426 156 430 L156 436" stroke="#7C3AED" stroke-width="1.5" fill="none" stroke-linecap="round"/>
    <text x="137" y="466" font-family="Inter,system-ui,sans-serif" font-size="10" font-weight="600" fill="#374151">Typhoon</text>
  </g>
  <g class="cat-card">
    <rect x="216" y="400" width="88" height="76" rx="12" fill="#FFFBEB" stroke="#FDE68A" stroke-width="0.5"/>
    <rect x="240" y="410" width="40" height="40" rx="10" fill="#FEF3C7"/>
    <!-- Rescue/helping hand icon -->
    <path d="M250 440 L250 430 Q250 424 256 424 L256 440" stroke="#D97706" stroke-width="2" fill="none" stroke-linecap="round"/>
    <path d="M250 440 Q250 446 256 446 L262 446" stroke="#D97706" stroke-width="2" fill="none" stroke-linecap="round"/>
    <circle cx="262" cy="430" r="4" stroke="#D97706" stroke-width="2" fill="none"/>
    <text x="240" y="466" font-family="Inter,system-ui,sans-serif" font-size="10" font-weight="600" fill="#374151">Rescue</text>
  </g>

  <g class="cat-card">
    <rect x="16" y="484" width="88" height="76" rx="12" fill="#ECFDF5" stroke="#A7F3D0" stroke-width="0.5"/>
    <rect x="40" y="494" width="40" height="40" rx="10" fill="#D1FAE5"/>
    <!-- Shield icon -->
    <path d="M50 498 L50 518 Q50 526 58 526 Q66 526 66 518 L66 498 L58 494 L50 498Z" stroke="#059669" stroke-width="2" fill="none"/>
    <path d="M54 512 L58 516 L64 506" stroke="#059669" stroke-width="2" fill="none" stroke-linecap="round" stroke-linejoin="round"/>
    <text x="38" y="550" font-family="Inter,system-ui,sans-serif" font-size="10" font-weight="600" fill="#374151">Security</text>
  </g>
  <g class="cat-card">
    <rect x="116" y="484" width="88" height="76" rx="12" fill="#FDF2F8" stroke="#FBCFE8" stroke-width="0.5"/>
    <rect x="140" y="494" width="40" height="40" rx="10" fill="#FCE7F3"/>
    <!-- Virus/outbreak icon -->
    <circle cx="160" cy="514" r="8" stroke="#DB2777" stroke-width="2" fill="none"/>
    <line x1="160" y1="502" x2="160" y2="498" stroke="#DB2777" stroke-width="2" stroke-linecap="round"/>
    <line x1="160" y1="526" x2="160" y2="530" stroke="#DB2777" stroke-width="2" stroke-linecap="round"/>
    <line x1="148" y1="514" x2="144" y2="514" stroke="#DB2777" stroke-width="2" stroke-linecap="round"/>
    <line x1="172" y1="514" x2="176" y2="514" stroke="#DB2777" stroke-width="2" stroke-linecap="round"/>
    <text x="133" y="550" font-family="Inter,system-ui,sans-serif" font-size="10" font-weight="600" fill="#374151">Outbreak</text>
  </g>
  <g class="cat-card">
    <rect x="216" y="484" width="88" height="76" rx="12" fill="#F8FAFC" stroke="#E2E8F0" stroke-width="0.5"/>
    <rect x="240" y="494" width="40" height="40" rx="10" fill="#F1F5F9"/>
    <!-- Wrench/tool icon -->
    <path d="M252 502 Q248 506 248 512 Q248 518 252 522 L258 528 L264 522 L258 516 Q262 512 262 506 Q262 500 256 496 L252 502Z" stroke="#64748B" stroke-width="2" fill="none"/>
    <text x="224" y="550" font-family="Inter,system-ui,sans-serif" font-size="10" font-weight="600" fill="#374151">Infrastructure</text>
  </g>

  <!-- Bottom Nav -->
  <rect x="0" y="540" width="320" height="40" rx="0" fill="white" stroke="#f0f0f0" stroke-width="0.5"/>
  <g class="nav-item active">
    <rect x="16" y="544" width="56" height="32" rx="16" fill="url(#sosGrad)"/>
    <!-- Home icon -->
    <path d="M30 558 L30 568 L40 568 L40 562 L46 562 L46 568 L56 568 L56 558 L43 548 L30 558Z" fill="white"/>
  </g>
  <!-- Map icon -->
  <path d="M82 558 L82 568 L92 564 L102 568 L102 558 L92 554 L82 558Z" fill="#86868b"/>
  <!-- Alert icon -->
  <path d="M132 556 L132 562 Q132 566 138 568 Q144 566 144 562 L144 556 L132 556Z" stroke="#86868b" stroke-width="1.5" fill="none"/>
  <!-- Tools icon -->
  <path d="M182 556 L186 560 L182 564 L188 568 L192 564 L188 560 L192 556 L186 560Z" stroke="#86868b" stroke-width="1.2" fill="none"/>
  <!-- Clock icon -->
  <circle cx="248" cy="562" r="6" stroke="#86868b" stroke-width="1.5" fill="none"/>
  <line x1="248" y1="558" x2="248" y2="562" stroke="#86868b" stroke-width="1.5" stroke-linecap="round"/>
  <line x1="248" y1="562" x2="251" y2="564" stroke="#86868b" stroke-width="1.5" stroke-linecap="round"/>
</svg>
